<?xml version="1.0" encoding="utf-8"?>
<!-- Generator: Adobe Illustrator 16.2.1, SVG Export Plug-In . SVG Version: 6.00 Build 0)  -->
<!DOCTYPE svg PUBLIC "-//W3C//DTD SVG 1.1//EN" "http://www.w3.org/Graphics/SVG/1.1/DTD/svg11.dtd" [
	<!ENTITY ns_extend "http://ns.adobe.com/Extensibility/1.0/">
	<!ENTITY ns_ai "http://ns.adobe.com/AdobeIllustrator/10.0/">
	<!ENTITY ns_graphs "http://ns.adobe.com/Graphs/1.0/">
	<!ENTITY ns_vars "http://ns.adobe.com/Variables/1.0/">
	<!ENTITY ns_imrep "http://ns.adobe.com/ImageReplacement/1.0/">
	<!ENTITY ns_sfw "http://ns.adobe.com/SaveForWeb/1.0/">
	<!ENTITY ns_custom "http://ns.adobe.com/GenericCustomNamespace/1.0/">
	<!ENTITY ns_adobe_xpath "http://ns.adobe.com/XPath/1.0/">
]>
<svg version="1.1" id="Layer_1" xmlns:x="&ns_extend;" xmlns:i="&ns_ai;" xmlns:graph="&ns_graphs;"
	 xmlns="http://www.w3.org/2000/svg" xmlns:xlink="http://www.w3.org/1999/xlink" x="0px" y="0px" width="357.5px" height="375px"
	 viewBox="0 92.5 357.5 375" enable-background="new 0 92.5 357.5 375" xml:space="preserve">
<metadata>
	<sfw  xmlns="&ns_sfw;">
		<slices></slices>
		<sliceSourceBounds  x="-0.5" y="93.294" bottomLeftOrigin="true" height="374.412" width="960"></sliceSourceBounds>
	</sfw>
</metadata>
<title>TELIA_W_RGB</title>
<path fill="#FFFFFF" d="M437.144,232.521c-4.886,0-9.641-3.565-14.527-10.829c-3.169-5.019-4.754-8.849-4.754-11.49
	c0-4.49,2.905-8.584,8.849-12.414c5.679-3.83,12.282-5.811,19.149-5.679h114.238c7.265,0,10.83,3.302,10.83,10.037
	c0,7.396-2.113,14.792-6.207,20.999c-4.095,6.339-8.585,9.509-13.472,9.509h-37.11V358.91c0.132,7.396-2.113,14.792-6.075,20.999
	c-4.094,6.339-8.584,9.509-13.471,9.509s-9.642-3.698-14.527-10.829c-3.17-5.019-4.755-8.849-4.755-11.49V232.521H437.144
	L437.144,232.521z"/>
<path fill="#FFFFFF" d="M579.909,330.912c1.849,8.452,6.604,15.848,13.471,21.131c7.132,5.415,15.849,8.188,24.829,7.924
	c8.188,0,17.961-2.773,29.318-8.32c4.491-2.377,9.377-3.83,14.528-3.962c5.942,0,8.98,2.642,8.98,8.057
	c0,4.886-1.057,9.641-3.17,13.999c-1.717,3.962-4.622,7.396-8.188,9.772c-6.604,3.962-13.734,7.132-21.131,9.113
	c-7.527,2.112-15.188,3.169-23.111,3.169c-13.075,0.133-25.753-3.565-36.715-10.565c-10.83-6.735-19.678-16.244-25.886-27.338
	c-6.075-10.961-9.244-23.243-9.244-35.79c-0.132-13.471,3.302-26.81,10.037-38.432c6.207-11.094,15.319-20.207,26.281-26.678
	c10.829-6.207,22.979-9.377,35.526-9.245c11.754-0.132,23.376,2.905,33.677,8.848c9.642,5.547,17.565,13.603,23.112,23.376
	c5.415,9.773,8.188,20.735,8.056,31.828c0.132,5.68-1.585,11.227-4.622,16.112c-3.037,4.755-6.472,7.132-10.169,7.132
	L579.909,330.912L579.909,330.912z M614.511,274.387c-8.32-0.264-16.376,2.509-22.848,7.66c-6.339,5.15-10.565,12.414-11.754,20.471
	h65.901c-0.264-7.792-3.697-15.056-9.509-20.074C630.359,277.028,622.567,274.123,614.511,274.387z"/>
<path fill="#FFFFFF" d="M731.787,389.154c-8.32,0-15.584-3.302-21.791-9.905c-6.075-6.207-9.377-14.66-9.245-23.376V207.561
	c0-4.094,2.905-8.056,8.585-11.754c5.414-3.698,11.754-5.547,18.225-5.547c6.868,0,10.302,3.17,10.302,9.509v144.085
	c-0.132,2.113,0.396,4.227,1.585,5.943c1.32,1.849,3.302,3.302,5.414,4.094c3.038,1.321,4.49,3.962,4.49,7.792
	c0.133,6.735-1.849,13.207-5.547,18.886C740.107,386.381,736.146,389.154,731.787,389.154z"/>
<path fill="#FFFFFF" d="M788.312,228.295c-4.887,0-9.905-3.83-15.057-11.49c-3.565-5.415-5.282-9.641-5.282-12.546
	c0-4.623,3.17-8.98,9.509-13.075c6.075-3.962,13.207-6.075,20.471-6.075c7.792,0,11.754,3.566,11.754,10.565
	c0,5.547-1.057,10.961-3.17,16.112c-1.717,4.622-4.49,8.716-8.056,12.15C794.915,226.843,791.613,228.295,788.312,228.295z
	 M788.312,389.154c-4.227,0-8.981-3.566-14-10.565c-3.037-4.887-4.49-8.453-4.49-10.83V263.558c0-4.094,2.906-8.056,8.585-11.754
	c5.414-3.698,11.754-5.547,18.357-5.547c6.867,0,10.301,3.169,10.301,9.509v104.201c0,5.019-1.057,9.905-2.905,14.527
	c-1.585,4.095-4.094,7.792-7.264,10.83C793.858,387.965,791.085,389.154,788.312,389.154z"/>
<path fill="#FFFFFF" d="M896.871,389.154c-12.811,0.132-25.488-3.302-36.45-10.037c-10.697-6.472-19.414-15.584-25.357-26.414
	c-6.074-10.962-9.244-23.244-9.112-35.658c-0.132-13.339,3.434-26.281,10.434-37.639c6.471-10.962,15.716-20.074,26.81-26.414
	c10.829-6.207,22.979-9.377,35.395-9.245c11.094,0.132,22.055,3.169,31.563,8.848c5.68-4.094,12.547-6.207,19.546-6.471
	c6.868,0,10.302,3.17,10.302,9.509v104.202c0,5.019-0.925,9.905-2.905,14.527c-1.585,4.094-4.095,7.792-7.264,10.829
	c-2.906,2.642-5.68,3.963-8.585,3.963c-4.226,0-8.98-3.566-13.999-10.565c-1.585-2.51-2.905-5.019-3.962-7.792
	c-1.32,3.83-3.434,7.396-5.943,10.565c-1.98,2.641-4.754,4.622-7.924,5.811C905.456,388.626,901.229,389.286,896.871,389.154z
	 M899.381,354.552c8.32,0,16.509-2.377,23.508-6.999V284.16c-7.132-3.962-15.056-5.943-23.111-5.943
	c-10.037-0.264-19.679,3.698-26.678,10.697c-7.132,7.133-10.697,16.112-10.697,26.942c-0.265,10.169,3.565,20.074,10.697,27.338
	C879.835,350.723,889.476,354.685,899.381,354.552z"/>
<path fill="#FFFFFF" d="M216.327,309.385c-92.711,44.507-164.424,56.789-196.252,23.772c11.358,22.188,25.093,42.922,41.205,61.939
	c38.696,32.885,104.862,20.471,185.423-26.281c47.677-27.603,83.467-63.656,99.711-100.636c6.604-27.866,9.905-56.393,9.905-85.051
	c0-3.698-0.132-7.132-0.396-10.565C350.772,217.466,292.266,272.935,216.327,309.385"/>
<path fill="#FFFFFF" d="M201.667,271.35c87.561-42.262,148.708-102.088,139.332-142.237c-18.754-26.149-52.167-36.319-87.958-36.319
	C139.463,92.794,0,167.676,0,263.161c0.264,11.49,2.113,22.979,5.547,33.941C32.225,329.987,110.409,315.328,201.667,271.35"/>
<path fill="#FFFFFF" d="M197.969,416.756L197.969,416.756c-59.694,24.169-93.372,17.697-113.446,3.302
	c29.319,27.998,62.072,47.148,90.995,47.148c52.431,0,124.011-62.601,159.273-160.198
	C314.981,342.798,273.776,386.116,197.969,416.756"/>
<g>
	<path display="none" fill="#FFFFFF" d="M201.667,271.35c-91.259,43.979-169.443,58.638-196.121,25.885
		c3.83,12.415,8.584,24.433,14.527,35.923c31.829,33.149,103.541,20.867,196.252-23.772
		c75.939-36.45,134.445-91.919,139.596-136.822c-1.453-17.829-6.868-32.225-14.923-43.583
		C350.375,169.129,289.228,229.088,201.667,271.35"/>
	<path display="none" fill="#FFFFFF" d="M246.703,368.815c-80.562,46.752-146.728,59.166-185.423,26.281
		c7.264,8.717,15.056,17.037,23.244,24.829c19.942,14.527,53.751,20.999,113.446-3.302c75.807-30.64,117.012-73.958,136.822-109.748
		c4.623-12.679,8.453-25.753,11.49-38.828C330.037,305.159,294.379,341.213,246.703,368.815"/>
</g>
</svg>
