<svg xmlns="http://www.w3.org/2000/svg" viewBox="0 0 23 12.2"><title>icon_enefit</title><path fill="' + $color_accent + '" d="M22.8,1,22.21.77h-.09a28.23,28.23,0,0,0-3.6.5,1.78,1.78,0,0,0-.72-.63A16.69,16.69,0,0,0,16.09,0a1.7,1.7,0,0,0-.82.06A17,17,0,0,0,9.73,3.48c-1.06.91-2.52,2.4-2.89,2.77C5.53,7.52,4.94,7.8,4.59,7.69a.55.55,0,0,1-.28-.17,4.35,4.35,0,0,1-.54-.63l.18-.08c1.52-.76,2.54-1,2.73-1.26l.83-1.27a.74.74,0,0,0,0-.46,4.9,4.9,0,0,0-1.62-2,3.49,3.49,0,0,0-1.66-1A.81.81,0,0,0,3.71,1c-.65.35-1.51.87-1.51.87C1.49,2.29,1,3.44.88,5.06a5.74,5.74,0,0,0,.29,2l0,.12a4.72,4.72,0,0,0-1,1.54s0,.15-.17.9c0,0,0,.09,0,.12s.3,0,.33,0,.07-.14.09-.18a4.92,4.92,0,0,1,1.22-1.4A5,5,0,0,0,3.19,9.85a1,1,0,0,0,.53.1c1.25-.08,3.12-2,3.12-2,1.15-1,2.11-2.19,3.3-3.32A15.24,15.24,0,0,1,16.33.94a1.12,1.12,0,0,1,.31-.07c.07,0,.1.13.14.2s.18.37.24.52l0,.07c-3.81,1.08-7,3.12-7,4.89v.16c0,.86.09,1.58.11,2l0,.1a1.65,1.65,0,0,0,.21.49c.92,1.32,2.83,3,4.43,2.93,3.8-.06,4.77-3.94,4.74-6.36a9.39,9.39,0,0,0-.61-3.74,29.24,29.24,0,0,1,4-.9C23,1.17,23,1.09,22.8,1ZM3.18,5.82a4.88,4.88,0,0,1-.31-2.07,5,5,0,0,1,.37-1.66h0A15.35,15.35,0,0,1,5,3.3,5.83,5.83,0,0,1,6.21,4.63l0,0A28.79,28.79,0,0,0,3.18,5.82Zm11,4.13h-.06a5.3,5.3,0,0,1-3.45-2.52c.75-1.57,3-3.37,6.64-4.81a13.49,13.49,0,0,1,.23,2.53C17.52,7.21,16.67,10.07,14.21,10Z"/></svg>
