<?xml version="1.0" encoding="utf-8"?>
<!-- Generated by IcoMoon.io -->
<!DOCTYPE svg PUBLIC "-//W3C//DTD SVG 1.1//EN" "http://www.w3.org/Graphics/SVG/1.1/DTD/svg11.dtd">
<svg version="1.1" xmlns="http://www.w3.org/2000/svg" xmlns:xlink="http://www.w3.org/1999/xlink" width="32" height="32" viewBox="0 0 32 32">
<path fill="#000000" d="M31.698 12.981c-0.086-0.447-0.466-0.781-0.921-0.809l-2.041-0.124c-0.243-0.785-0.564-1.535-0.941-2.25l1.36-1.536c0.302-0.341 0.335-0.845 0.080-1.222-1.11-1.644-2.541-3.106-4.269-4.275-0.377-0.255-0.882-0.223-1.223 0.079l-1.538 1.362c-0.715-0.378-1.465-0.698-2.25-0.942l-0.124-2.037c-0.027-0.455-0.36-0.835-0.808-0.921-0.989-0.192-2.004-0.291-3.031-0.291-0.996 0-2.003 0.094-3.011 0.289-0.448 0.086-0.781 0.466-0.809 0.921l-0.124 2.040c-0.785 0.244-1.535 0.565-2.251 0.943l-1.535-1.36c-0.341-0.302-0.845-0.335-1.223-0.080-1.644 1.111-3.106 2.543-4.274 4.27-0.255 0.377-0.223 0.882 0.079 1.223l1.362 1.539c-0.377 0.715-0.697 1.465-0.941 2.25l-2.037 0.124c-0.455 0.027-0.834 0.36-0.921 0.807-0.192 0.99-0.292 2.005-0.292 3.033 0 0.995 0.093 2.002 0.288 3.009 0.086 0.448 0.466 0.781 0.921 0.809l2.042 0.124c0.244 0.784 0.564 1.533 0.942 2.248l-1.361 1.537c-0.302 0.341-0.335 0.845-0.080 1.223 1.111 1.645 2.543 3.107 4.27 4.275 0.377 0.256 0.882 0.223 1.223-0.079l1.54-1.364c0.715 0.377 1.464 0.697 2.248 0.941l0.124 2.039c0.027 0.455 0.36 0.835 0.807 0.921 0.989 0.192 2.004 0.292 3.031 0.292 0.995 0 2.003-0.094 3.011-0.289 0.448-0.087 0.781-0.466 0.809-0.921l0.125-2.043c0.783-0.243 1.533-0.563 2.247-0.941l1.538 1.361c0.341 0.302 0.845 0.335 1.222 0.080 1.645-1.109 3.106-2.541 4.275-4.268 0.256-0.377 0.223-0.882-0.079-1.223l-1.364-1.541c0.377-0.715 0.698-1.465 0.942-2.249l2.039-0.124c0.455-0.027 0.835-0.36 0.921-0.808 0.192-0.989 0.292-2.004 0.292-3.031-0.001-0.997-0.095-2.004-0.289-3.011zM13.137 23.113c-0.023-0.009-0.048-0.011-0.072-0.019-0.024-0.013-0.045-0.030-0.070-0.041-0.88-0.374-1.701-0.913-2.417-1.629s-1.257-1.538-1.631-2.417c-0.010-0.023-0.025-0.041-0.037-0.063-0.008-0.027-0.011-0.054-0.021-0.080-0.358-0.887-0.557-1.849-0.557-2.862v-0.003c0-1.011 0.199-1.974 0.555-2.86 0.009-0.023 0.011-0.048 0.019-0.071 0.013-0.025 0.030-0.045 0.041-0.071 0.374-0.88 0.914-1.7 1.63-2.417v0c0.715-0.716 1.537-1.256 2.416-1.63 0.025-0.011 0.044-0.027 0.068-0.039 0.025-0.008 0.051-0.010 0.076-0.020 0.887-0.359 1.849-0.557 2.863-0.557s1.976 0.199 2.863 0.555c0.023 0.009 0.049 0.011 0.073 0.019 0.024 0.013 0.044 0.030 0.069 0.041 0.879 0.374 1.7 0.914 2.416 1.63l0.001 0.001c0.717 0.717 1.257 1.537 1.631 2.417 0.010 0.024 0.027 0.043 0.038 0.065 0.009 0.026 0.011 0.053 0.021 0.078 0.357 0.886 0.556 1.848 0.556 2.861s-0.199 1.975-0.557 2.863c-0.010 0.024-0.012 0.049-0.019 0.074-0.013 0.023-0.029 0.043-0.040 0.069-0.374 0.879-0.913 1.7-1.63 2.416v0.001c-0.717 0.716-1.537 1.256-2.418 1.631-0.023 0.010-0.041 0.026-0.064 0.038-0.026 0.008-0.053 0.010-0.078 0.020-0.887 0.357-1.849 0.556-2.862 0.556s-1.975-0.198-2.862-0.555z"></path>
</svg>
